<svg xmlns="http://www.w3.org/2000/svg" xmlns:xlink="http://www.w3.org/1999/xlink" version="1.1" width="1000" height="1000" viewBox="0 0 1000 1000" xml:space="preserve">
<desc>Created with Fabric.js 3.5.0</desc>
<defs>
</defs>
<rect x="0" y="0" width="100%" height="100%" fill="#ffffff"/>
<g transform="matrix(0.099 0 0 -0.0981 499.9536 500.2028)" id="126071">
<path style="stroke: none; stroke-width: 1; stroke-dasharray: none; stroke-linecap: butt; stroke-dashoffset: 0; stroke-linejoin: miter; stroke-miterlimit: 4; is-custom-font: none; font-file-url: none; fill: rgb(0,0,0); fill-rule: nonzero; opacity: 1;" vector-effect="non-scaling-stroke" transform=" translate(-9599.4779, -9614.4248)" d="M 9300 14224 c -19 -2 -91 -9 -160 -15 c -528 -46 -1119 -218 -1625 -471 c -430 -216 -803 -482 -1159 -828 c -849 -826 -1345 -1938 -1395 -3127 c -27 -650 81 -1299 316 -1893 c 582 -1474 1855 -2540 3408 -2855 c 235 -48 219 -51 262 42 c 111 243 165 514 198 988 c 49 715 95 942 246 1234 c 69 133 71 124 -46 196 c -234 146 -512 238 -1100 365 c -653 141 -908 215 -1139 331 c -294 148 -417 286 -511 573 c -93 284 -103 637 -23 856 l 23 65 l 210 6 c 472 15 832 85 1200 236 c 226 93 393 186 655 368 c 264 182 541 305 812 360 c 206 41 322 48 675 41 l 322 -6 l 98 64 c 280 183 541 279 763 280 c 207 2 331 -56 400 -186 c 58 -108 54 -259 -10 -394 c -37 -77 -99 -157 -145 -187 c -19 -12 -35 -24 -35 -28 c 0 -3 51 -25 113 -48 c 130 -50 385 -179 537 -270 c 564 -341 1114 -838 1524 -1380 c 70 -92 268 -385 280 -414 c 9 -23 24 16 67 168 c 129 466 182 846 181 1310 c -2 508 -74 957 -233 1445 c -225 690 -636 1345 -1165 1860 c -274 266 -536 469 -854 660 c -570 343 -1235 566 -1915 641 c -97 10 -705 21 -775 13 z" stroke-linecap="round"/>
</g>
</svg>